<mxfile host="app.diagrams.net" agent="Mozilla/5.0 (Windows NT 10.0; Win64; x64) AppleWebKit/537.36 (KHTML, like Gecko) Chrome/134.0.0.0 Safari/537.36 Edg/134.0.0.0" version="26.1.0">
  <diagram name="第 1 页" id="HbV-hDT2-JPePssOrOjj">
    <mxGraphModel dx="3489" dy="2326" grid="1" gridSize="10" guides="1" tooltips="1" connect="1" arrows="1" fold="1" page="1" pageScale="1" pageWidth="827" pageHeight="1169" math="0" shadow="0">
      <root>
        <mxCell id="0" />
        <mxCell id="1" parent="0" />
        <mxCell id="b8q4aLTcgnFEHHnnM0iS-1" value="" style="rounded=0;whiteSpace=wrap;html=1;" vertex="1" parent="1">
          <mxGeometry x="70" y="200" width="830" height="240" as="geometry" />
        </mxCell>
        <mxCell id="b8q4aLTcgnFEHHnnM0iS-3" value="&lt;b&gt;需求预测&lt;/b&gt;" style="text;html=1;align=center;verticalAlign=middle;resizable=0;points=[];autosize=1;strokeColor=none;fillColor=none;" vertex="1" parent="1">
          <mxGeometry x="70" y="220" width="70" height="30" as="geometry" />
        </mxCell>
        <mxCell id="b8q4aLTcgnFEHHnnM0iS-5" value="&lt;div&gt;&lt;br&gt;&lt;/div&gt;&lt;div&gt;&lt;br&gt;&lt;/div&gt;预测值" style="rounded=1;whiteSpace=wrap;html=1;fillColor=#fff2cc;strokeColor=#d6b656;" vertex="1" parent="1">
          <mxGeometry x="80" y="260" width="170" height="160" as="geometry" />
        </mxCell>
        <mxCell id="b8q4aLTcgnFEHHnnM0iS-6" value="实际值" style="rounded=1;whiteSpace=wrap;html=1;" vertex="1" parent="1">
          <mxGeometry x="295" y="310" width="110" height="60" as="geometry" />
        </mxCell>
        <mxCell id="b8q4aLTcgnFEHHnnM0iS-7" value="" style="endArrow=classic;html=1;rounded=0;entryX=0.5;entryY=0;entryDx=0;entryDy=0;" edge="1" parent="1" target="b8q4aLTcgnFEHHnnM0iS-5">
          <mxGeometry width="50" height="50" relative="1" as="geometry">
            <mxPoint x="40" y="150" as="sourcePoint" />
            <mxPoint x="90" y="100" as="targetPoint" />
            <Array as="points">
              <mxPoint x="165" y="150" />
            </Array>
          </mxGeometry>
        </mxCell>
        <mxCell id="b8q4aLTcgnFEHHnnM0iS-8" value="期间批次预测" style="text;html=1;align=center;verticalAlign=middle;resizable=0;points=[];autosize=1;strokeColor=none;fillColor=none;" vertex="1" parent="1">
          <mxGeometry x="60" y="108" width="100" height="30" as="geometry" />
        </mxCell>
        <mxCell id="b8q4aLTcgnFEHHnnM0iS-11" style="edgeStyle=orthogonalEdgeStyle;rounded=0;orthogonalLoop=1;jettySize=auto;html=1;entryX=0.5;entryY=1;entryDx=0;entryDy=0;" edge="1" parent="1" source="b8q4aLTcgnFEHHnnM0iS-9" target="b8q4aLTcgnFEHHnnM0iS-10">
          <mxGeometry relative="1" as="geometry" />
        </mxCell>
        <mxCell id="b8q4aLTcgnFEHHnnM0iS-9" value="采购订单" style="rounded=1;whiteSpace=wrap;html=1;" vertex="1" parent="1">
          <mxGeometry x="90" y="490" width="170" height="90" as="geometry" />
        </mxCell>
        <mxCell id="b8q4aLTcgnFEHHnnM0iS-10" value="实际入库" style="rounded=1;whiteSpace=wrap;html=1;" vertex="1" parent="1">
          <mxGeometry x="300" y="450" width="90" height="50" as="geometry" />
        </mxCell>
        <mxCell id="b8q4aLTcgnFEHHnnM0iS-13" style="edgeStyle=orthogonalEdgeStyle;rounded=0;orthogonalLoop=1;jettySize=auto;html=1;exitX=0.5;exitY=0;exitDx=0;exitDy=0;entryX=0.448;entryY=0.987;entryDx=0;entryDy=0;entryPerimeter=0;" edge="1" parent="1" source="b8q4aLTcgnFEHHnnM0iS-10" target="b8q4aLTcgnFEHHnnM0iS-6">
          <mxGeometry relative="1" as="geometry" />
        </mxCell>
        <mxCell id="b8q4aLTcgnFEHHnnM0iS-14" value="预测销售周期" style="text;html=1;align=center;verticalAlign=middle;resizable=0;points=[];autosize=1;strokeColor=none;fillColor=none;fontStyle=1" vertex="1" parent="1">
          <mxGeometry x="382.5" y="130" width="100" height="30" as="geometry" />
        </mxCell>
        <mxCell id="b8q4aLTcgnFEHHnnM0iS-16" value="" style="strokeWidth=2;html=1;shape=mxgraph.flowchart.annotation_2;align=left;labelPosition=right;pointerEvents=1;rotation=90;" vertex="1" parent="1">
          <mxGeometry x="473.75" y="-228.75" width="20" height="817.5" as="geometry" />
        </mxCell>
        <mxCell id="b8q4aLTcgnFEHHnnM0iS-25" style="edgeStyle=orthogonalEdgeStyle;rounded=0;orthogonalLoop=1;jettySize=auto;html=1;entryX=0;entryY=0.5;entryDx=0;entryDy=0;" edge="1" parent="1" source="b8q4aLTcgnFEHHnnM0iS-17" target="b8q4aLTcgnFEHHnnM0iS-20">
          <mxGeometry relative="1" as="geometry" />
        </mxCell>
        <mxCell id="b8q4aLTcgnFEHHnnM0iS-26" style="edgeStyle=orthogonalEdgeStyle;rounded=0;orthogonalLoop=1;jettySize=auto;html=1;" edge="1" parent="1" source="b8q4aLTcgnFEHHnnM0iS-17" target="b8q4aLTcgnFEHHnnM0iS-23">
          <mxGeometry relative="1" as="geometry" />
        </mxCell>
        <mxCell id="b8q4aLTcgnFEHHnnM0iS-17" value="配--&amp;gt;补--&amp;gt;调" style="rounded=1;whiteSpace=wrap;html=1;fillColor=#dae8fc;strokeColor=#6c8ebf;" vertex="1" parent="1">
          <mxGeometry x="440" y="310" width="210" height="60" as="geometry" />
        </mxCell>
        <mxCell id="b8q4aLTcgnFEHHnnM0iS-18" value="追单" style="rounded=1;whiteSpace=wrap;html=1;fillColor=#fff2cc;strokeColor=#d6b656;" vertex="1" parent="1">
          <mxGeometry x="110" y="270" width="110" height="60" as="geometry" />
        </mxCell>
        <mxCell id="b8q4aLTcgnFEHHnnM0iS-19" style="edgeStyle=orthogonalEdgeStyle;rounded=0;orthogonalLoop=1;jettySize=auto;html=1;entryX=1;entryY=0;entryDx=0;entryDy=0;" edge="1" parent="1" source="b8q4aLTcgnFEHHnnM0iS-17" target="b8q4aLTcgnFEHHnnM0iS-18">
          <mxGeometry relative="1" as="geometry">
            <Array as="points">
              <mxPoint x="545" y="273" />
              <mxPoint x="220" y="273" />
            </Array>
          </mxGeometry>
        </mxCell>
        <mxCell id="b8q4aLTcgnFEHHnnM0iS-20" value="实际销量" style="rounded=1;whiteSpace=wrap;html=1;fillColor=#dae8fc;strokeColor=#6c8ebf;" vertex="1" parent="1">
          <mxGeometry x="744" y="225" width="110" height="60" as="geometry" />
        </mxCell>
        <mxCell id="b8q4aLTcgnFEHHnnM0iS-23" value="剩余库存" style="rounded=1;whiteSpace=wrap;html=1;fillColor=#dae8fc;strokeColor=#6c8ebf;" vertex="1" parent="1">
          <mxGeometry x="745" y="360" width="110" height="60" as="geometry" />
        </mxCell>
        <mxCell id="b8q4aLTcgnFEHHnnM0iS-31" style="edgeStyle=orthogonalEdgeStyle;rounded=0;orthogonalLoop=1;jettySize=auto;html=1;entryX=1;entryY=0.5;entryDx=0;entryDy=0;" edge="1" parent="1" source="b8q4aLTcgnFEHHnnM0iS-24" target="b8q4aLTcgnFEHHnnM0iS-30">
          <mxGeometry relative="1" as="geometry">
            <Array as="points">
              <mxPoint x="800" y="40" />
            </Array>
          </mxGeometry>
        </mxCell>
        <mxCell id="b8q4aLTcgnFEHHnnM0iS-24" value="计划调整量" style="rounded=0;whiteSpace=wrap;html=1;fillColor=#f8cecc;strokeColor=#b85450;" vertex="1" parent="1">
          <mxGeometry x="740" y="78" width="120" height="60" as="geometry" />
        </mxCell>
        <mxCell id="b8q4aLTcgnFEHHnnM0iS-30" value="总体OTB计划量" style="rounded=1;whiteSpace=wrap;html=1;" vertex="1" parent="1">
          <mxGeometry x="30" y="10" width="120" height="60" as="geometry" />
        </mxCell>
        <mxCell id="b8q4aLTcgnFEHHnnM0iS-34" value="" style="strokeWidth=2;html=1;shape=mxgraph.flowchart.annotation_2;align=left;labelPosition=right;pointerEvents=1;rotation=90;" vertex="1" parent="1">
          <mxGeometry x="1355" y="-228.75" width="20" height="817.5" as="geometry" />
        </mxCell>
        <mxCell id="b8q4aLTcgnFEHHnnM0iS-35" value="更新下一批" style="text;html=1;align=center;verticalAlign=middle;resizable=0;points=[];autosize=1;strokeColor=none;fillColor=none;" vertex="1" parent="1">
          <mxGeometry x="920" y="98" width="80" height="30" as="geometry" />
        </mxCell>
        <mxCell id="b8q4aLTcgnFEHHnnM0iS-37" value="" style="rounded=0;whiteSpace=wrap;html=1;" vertex="1" parent="1">
          <mxGeometry x="950" y="200" width="830" height="240" as="geometry" />
        </mxCell>
        <mxCell id="b8q4aLTcgnFEHHnnM0iS-38" value="" style="endArrow=classic;html=1;rounded=0;entryX=0.5;entryY=0;entryDx=0;entryDy=0;" edge="1" parent="1">
          <mxGeometry width="50" height="50" relative="1" as="geometry">
            <mxPoint x="875" y="115" as="sourcePoint" />
            <mxPoint x="1000" y="225" as="targetPoint" />
            <Array as="points">
              <mxPoint x="1000" y="115" />
            </Array>
          </mxGeometry>
        </mxCell>
        <mxCell id="b8q4aLTcgnFEHHnnM0iS-40" value="预测销售周期" style="text;html=1;align=center;verticalAlign=middle;resizable=0;points=[];autosize=1;strokeColor=none;fillColor=none;fontStyle=1" vertex="1" parent="1">
          <mxGeometry x="1320" y="130" width="100" height="30" as="geometry" />
        </mxCell>
      </root>
    </mxGraphModel>
  </diagram>
</mxfile>
